<svg width="114" height="119" viewBox="0 0 114 119" fill="none" xmlns="http://www.w3.org/2000/svg">
<g clip-path="url(#clip0_274_38)">
<path d="M49.8 118.802C30.4 118.008 12.6 104.522 7 86.275C2.8 72.1933 5 58.5083 12 45.6166C17 36.295 24.2 28.56 31.8 21.0233C38.4 14.4783 45.2 8.32997 51.4 1.3883C52.4 0.198301 53.2 -0.991699 54.8 0.793301C62.4 9.91663 71.6 17.4533 79.8 25.9816C87.4 33.915 94 42.4433 98 52.955C106.8 76.3583 99.4 101.745 75.4 114.042C67.2 118.008 60 119.397 49.8 118.802Z" fill="#EBEBEB"/>
<path fill-rule="evenodd" clip-rule="evenodd" d="M73.4 64.2601C74.2 59.3018 70.6 53.9468 63.8 51.5668L65.6 44.4268L60.2 43.0384L58.4 49.9801C57.2 49.7818 56.2 49.3851 55 49.1868C54.6 49.1868 54.4 48.9884 54 48.9884L55.8 42.0468L50.4 40.6584L48.6 47.7984L38.8 45.4184L37.4 51.1701L41.4 52.1618C43.6 52.7568 44 54.1451 44 55.3351L38 79.3334C37.8 79.9284 37 80.9201 35.6 80.5234L31.6 79.5318L29 85.6801L38.8 88.0601L36.8 95.7951L42.2 97.1834L44.2 89.4484C45.6 89.8451 47.2 90.2418 48.4 90.6385L46.4 98.3734L51.8 99.7618L53.8 92.0268C63 93.8118 70 91.4318 71.8 84.4901C73.2 78.9368 72 74.7718 68 71.7968C70.4 70.8051 72.8 68.2268 73.4 64.2601ZM62.4 80.9201C60.8 87.0684 51.4 84.4901 46.8 83.3001C46.4 83.3001 46 83.3001 45.8 83.1018L48.8 71.4001C49.2 71.4001 49.6 71.5984 50.2 71.7968C54.6 72.7884 63.8 74.7718 62.4 80.9201ZM50.8 66.2435C54.4 67.2351 62.4 69.2184 63.8 63.8634C65.2 58.1118 57.4 56.5251 53.6 55.7318C53.2 55.7318 52.8 55.5334 52.4 55.5334L50 66.0451C50.2 66.0451 50.6 66.2435 50.8 66.2435Z" fill="#00254E"/>
</g>
<defs>
<clipPath id="clip0_274_38">
<rect width="122" height="119" fill="white" transform="translate(-8)"/>
</clipPath>
</defs>
</svg>
